<svg width="10" height="10" viewBox="0 0 10 10" fill="none" xmlns="http://www.w3.org/2000/svg">
<g clip-path="url(#paint0_diamond_4291_10_clip_path)" data-figma-skip-parse="true"><g transform="matrix(0 0.005 -0.005 0 5 5)"><rect x="0" y="0" width="1200" height="1200" fill="url(#paint0_diamond_4291_10)" opacity="1" shape-rendering="crispEdges"/><rect x="0" y="0" width="1200" height="1200" transform="scale(1 -1)" fill="url(#paint0_diamond_4291_10)" opacity="1" shape-rendering="crispEdges"/><rect x="0" y="0" width="1200" height="1200" transform="scale(-1 1)" fill="url(#paint0_diamond_4291_10)" opacity="1" shape-rendering="crispEdges"/><rect x="0" y="0" width="1200" height="1200" transform="scale(-1)" fill="url(#paint0_diamond_4291_10)" opacity="1" shape-rendering="crispEdges"/></g></g><path d="M5.65588 0.271674C5.29365 -0.0905575 4.70635 -0.0905585 4.34412 0.271674L2.52888 2.08692L5 4.55804L7.47112 2.08692L5.65588 0.271674Z" data-figma-gradient-fill="{&#34;type&#34;:&#34;GRADIENT_DIAMOND&#34;,&#34;stops&#34;:[{&#34;color&#34;:{&#34;r&#34;:0.0,&#34;g&#34;:1.0,&#34;b&#34;:0.83333331346511841,&#34;a&#34;:1.0},&#34;position&#34;:0.0},{&#34;color&#34;:{&#34;r&#34;:0.0,&#34;g&#34;:0.51666665077209473,&#34;b&#34;:1.0,&#34;a&#34;:1.0},&#34;position&#34;:1.0}],&#34;stopsVar&#34;:[{&#34;color&#34;:{&#34;r&#34;:0.0,&#34;g&#34;:1.0,&#34;b&#34;:0.83333331346511841,&#34;a&#34;:1.0},&#34;position&#34;:0.0},{&#34;color&#34;:{&#34;r&#34;:0.0,&#34;g&#34;:0.51666665077209473,&#34;b&#34;:1.0,&#34;a&#34;:1.0},&#34;position&#34;:1.0}],&#34;transform&#34;:{&#34;m00&#34;:6.1232350570192273e-16,&#34;m01&#34;:-10.000000953674316,&#34;m02&#34;:10.000000953674316,&#34;m10&#34;:10.000000953674316,&#34;m11&#34;:6.1232350570192273e-16,&#34;m12&#34;:-6.1232350570192273e-16},&#34;opacity&#34;:1.0,&#34;blendMode&#34;:&#34;NORMAL&#34;,&#34;visible&#34;:true}"/>
<g clip-path="url(#paint1_diamond_4291_10_clip_path)" data-figma-skip-parse="true"><g transform="matrix(0 0.005 -0.005 0 5 5)"><rect x="0" y="0" width="1200" height="1200" fill="url(#paint1_diamond_4291_10)" opacity="1" shape-rendering="crispEdges"/><rect x="0" y="0" width="1200" height="1200" transform="scale(1 -1)" fill="url(#paint1_diamond_4291_10)" opacity="1" shape-rendering="crispEdges"/><rect x="0" y="0" width="1200" height="1200" transform="scale(-1 1)" fill="url(#paint1_diamond_4291_10)" opacity="1" shape-rendering="crispEdges"/><rect x="0" y="0" width="1200" height="1200" transform="scale(-1)" fill="url(#paint1_diamond_4291_10)" opacity="1" shape-rendering="crispEdges"/></g></g><path d="M7.91306 2.52886L5.44194 4.99998L7.91308 7.47112L9.72833 5.65588C10.0906 5.29365 10.0906 4.70635 9.72833 4.34412L7.91306 2.52886Z" data-figma-gradient-fill="{&#34;type&#34;:&#34;GRADIENT_DIAMOND&#34;,&#34;stops&#34;:[{&#34;color&#34;:{&#34;r&#34;:0.0,&#34;g&#34;:1.0,&#34;b&#34;:0.83333331346511841,&#34;a&#34;:1.0},&#34;position&#34;:0.0},{&#34;color&#34;:{&#34;r&#34;:0.0,&#34;g&#34;:0.51666665077209473,&#34;b&#34;:1.0,&#34;a&#34;:1.0},&#34;position&#34;:1.0}],&#34;stopsVar&#34;:[{&#34;color&#34;:{&#34;r&#34;:0.0,&#34;g&#34;:1.0,&#34;b&#34;:0.83333331346511841,&#34;a&#34;:1.0},&#34;position&#34;:0.0},{&#34;color&#34;:{&#34;r&#34;:0.0,&#34;g&#34;:0.51666665077209473,&#34;b&#34;:1.0,&#34;a&#34;:1.0},&#34;position&#34;:1.0}],&#34;transform&#34;:{&#34;m00&#34;:6.1232350570192273e-16,&#34;m01&#34;:-10.000000953674316,&#34;m02&#34;:10.000000953674316,&#34;m10&#34;:10.000000953674316,&#34;m11&#34;:6.1232350570192273e-16,&#34;m12&#34;:-6.1232350570192273e-16},&#34;opacity&#34;:1.0,&#34;blendMode&#34;:&#34;NORMAL&#34;,&#34;visible&#34;:true}"/>
<g clip-path="url(#paint2_diamond_4291_10_clip_path)" data-figma-skip-parse="true"><g transform="matrix(0 0.005 -0.005 0 5 5)"><rect x="0" y="0" width="1200" height="1200" fill="url(#paint2_diamond_4291_10)" opacity="1" shape-rendering="crispEdges"/><rect x="0" y="0" width="1200" height="1200" transform="scale(1 -1)" fill="url(#paint2_diamond_4291_10)" opacity="1" shape-rendering="crispEdges"/><rect x="0" y="0" width="1200" height="1200" transform="scale(-1 1)" fill="url(#paint2_diamond_4291_10)" opacity="1" shape-rendering="crispEdges"/><rect x="0" y="0" width="1200" height="1200" transform="scale(-1)" fill="url(#paint2_diamond_4291_10)" opacity="1" shape-rendering="crispEdges"/></g></g><path d="M7.47114 7.91306L5 5.44192L2.52886 7.91306L4.34412 9.72833C4.70635 10.0906 5.29365 10.0906 5.65588 9.72833L7.47114 7.91306Z" data-figma-gradient-fill="{&#34;type&#34;:&#34;GRADIENT_DIAMOND&#34;,&#34;stops&#34;:[{&#34;color&#34;:{&#34;r&#34;:0.0,&#34;g&#34;:1.0,&#34;b&#34;:0.83333331346511841,&#34;a&#34;:1.0},&#34;position&#34;:0.0},{&#34;color&#34;:{&#34;r&#34;:0.0,&#34;g&#34;:0.51666665077209473,&#34;b&#34;:1.0,&#34;a&#34;:1.0},&#34;position&#34;:1.0}],&#34;stopsVar&#34;:[{&#34;color&#34;:{&#34;r&#34;:0.0,&#34;g&#34;:1.0,&#34;b&#34;:0.83333331346511841,&#34;a&#34;:1.0},&#34;position&#34;:0.0},{&#34;color&#34;:{&#34;r&#34;:0.0,&#34;g&#34;:0.51666665077209473,&#34;b&#34;:1.0,&#34;a&#34;:1.0},&#34;position&#34;:1.0}],&#34;transform&#34;:{&#34;m00&#34;:6.1232350570192273e-16,&#34;m01&#34;:-10.000000953674316,&#34;m02&#34;:10.000000953674316,&#34;m10&#34;:10.000000953674316,&#34;m11&#34;:6.1232350570192273e-16,&#34;m12&#34;:-6.1232350570192273e-16},&#34;opacity&#34;:1.0,&#34;blendMode&#34;:&#34;NORMAL&#34;,&#34;visible&#34;:true}"/>
<g clip-path="url(#paint3_diamond_4291_10_clip_path)" data-figma-skip-parse="true"><g transform="matrix(0 0.005 -0.005 0 5 5)"><rect x="0" y="0" width="1200" height="1200" fill="url(#paint3_diamond_4291_10)" opacity="1" shape-rendering="crispEdges"/><rect x="0" y="0" width="1200" height="1200" transform="scale(1 -1)" fill="url(#paint3_diamond_4291_10)" opacity="1" shape-rendering="crispEdges"/><rect x="0" y="0" width="1200" height="1200" transform="scale(-1 1)" fill="url(#paint3_diamond_4291_10)" opacity="1" shape-rendering="crispEdges"/><rect x="0" y="0" width="1200" height="1200" transform="scale(-1)" fill="url(#paint3_diamond_4291_10)" opacity="1" shape-rendering="crispEdges"/></g></g><path d="M2.08692 7.47112L4.55806 4.99998L2.08694 2.52886L0.271674 4.34412C-0.0905575 4.70635 -0.0905585 5.29365 0.271674 5.65588L2.08692 7.47112Z" data-figma-gradient-fill="{&#34;type&#34;:&#34;GRADIENT_DIAMOND&#34;,&#34;stops&#34;:[{&#34;color&#34;:{&#34;r&#34;:0.0,&#34;g&#34;:1.0,&#34;b&#34;:0.83333331346511841,&#34;a&#34;:1.0},&#34;position&#34;:0.0},{&#34;color&#34;:{&#34;r&#34;:0.0,&#34;g&#34;:0.51666665077209473,&#34;b&#34;:1.0,&#34;a&#34;:1.0},&#34;position&#34;:1.0}],&#34;stopsVar&#34;:[{&#34;color&#34;:{&#34;r&#34;:0.0,&#34;g&#34;:1.0,&#34;b&#34;:0.83333331346511841,&#34;a&#34;:1.0},&#34;position&#34;:0.0},{&#34;color&#34;:{&#34;r&#34;:0.0,&#34;g&#34;:0.51666665077209473,&#34;b&#34;:1.0,&#34;a&#34;:1.0},&#34;position&#34;:1.0}],&#34;transform&#34;:{&#34;m00&#34;:6.1232350570192273e-16,&#34;m01&#34;:-10.000000953674316,&#34;m02&#34;:10.000000953674316,&#34;m10&#34;:10.000000953674316,&#34;m11&#34;:6.1232350570192273e-16,&#34;m12&#34;:-6.1232350570192273e-16},&#34;opacity&#34;:1.0,&#34;blendMode&#34;:&#34;NORMAL&#34;,&#34;visible&#34;:true}"/>
<defs>
<clipPath id="paint0_diamond_4291_10_clip_path"><path d="M5.65588 0.271674C5.29365 -0.0905575 4.70635 -0.0905585 4.34412 0.271674L2.52888 2.08692L5 4.55804L7.47112 2.08692L5.65588 0.271674Z"/></clipPath><clipPath id="paint1_diamond_4291_10_clip_path"><path d="M7.91306 2.52886L5.44194 4.99998L7.91308 7.47112L9.72833 5.65588C10.0906 5.29365 10.0906 4.70635 9.72833 4.34412L7.91306 2.52886Z"/></clipPath><clipPath id="paint2_diamond_4291_10_clip_path"><path d="M7.47114 7.91306L5 5.44192L2.52886 7.91306L4.34412 9.72833C4.70635 10.0906 5.29365 10.0906 5.65588 9.72833L7.47114 7.91306Z"/></clipPath><clipPath id="paint3_diamond_4291_10_clip_path"><path d="M2.08692 7.47112L4.55806 4.99998L2.08694 2.52886L0.271674 4.34412C-0.0905575 4.70635 -0.0905585 5.29365 0.271674 5.65588L2.08692 7.47112Z"/></clipPath><linearGradient id="paint0_diamond_4291_10" x1="0" y1="0" x2="500" y2="500" gradientUnits="userSpaceOnUse">
<stop stop-color="#00FFD5"/>
<stop offset="1" stop-color="#0084FF"/>
</linearGradient>
<linearGradient id="paint1_diamond_4291_10" x1="0" y1="0" x2="500" y2="500" gradientUnits="userSpaceOnUse">
<stop stop-color="#00FFD5"/>
<stop offset="1" stop-color="#0084FF"/>
</linearGradient>
<linearGradient id="paint2_diamond_4291_10" x1="0" y1="0" x2="500" y2="500" gradientUnits="userSpaceOnUse">
<stop stop-color="#00FFD5"/>
<stop offset="1" stop-color="#0084FF"/>
</linearGradient>
<linearGradient id="paint3_diamond_4291_10" x1="0" y1="0" x2="500" y2="500" gradientUnits="userSpaceOnUse">
<stop stop-color="#00FFD5"/>
<stop offset="1" stop-color="#0084FF"/>
</linearGradient>
</defs>
</svg>
